<svg version="1.2" xmlns="http://www.w3.org/2000/svg" viewBox="0 0 1180 320" width="221" height="60">
	<title>OpenAI_Logo-svg</title>
	<style>
		.s0 { fill: #ffffff } 
		.s1 { fill: #000000 } 
	</style>
	<path id="Shape 1" class="s0" d="m-38-43h1231v412h-1231z"/>
	<g id="Folder 1">
		<path id="Layer" fill-rule="evenodd" class="s1" d="m447.6 65c46.6 0 80.2 36.5 80.2 88.8 0 52.4-33.6 88.8-80.2 88.8-46.6 0-80.2-36.4-80.2-88.8 0-52.3 33.6-88.8 80.2-88.8zm0 27.2c-29 0-49.4 24.2-49.4 61.6 0 37.5 20.4 61.7 49.4 61.7 29 0 49.4-24.2 49.4-61.7 0-37.4-20.4-61.6-49.4-61.6z"/>
		<path id="Layer" fill-rule="evenodd" class="s1" d="m578 226.8v56.4h-28.8v-169.2h28.8v13.4c7.9-9.3 19.9-15.8 36.3-15.8 35.3 0 55.4 29.8 55.4 65.5 0 35.8-20.2 65.5-55.4 65.5-16.4 0-28.4-6.4-36.3-15.8zm-0.7-45.8c0 23.2 13.4 36.4 31.2 36.4 20.9 0 32.2-16.3 32.2-40.3 0-24-11.3-40.3-32.2-40.3-17.8 0-31.2 13-31.2 36.7z"/>
		<path id="Layer" fill-rule="evenodd" class="s1" d="m686.4 177.1c0-36.9 23.6-65.5 60-65.5 36.5 0 56 27.6 56 62.2v9.6h-88.4c2.2 21.6 15.2 34.8 33.7 34.8 14.1 0 25.4-7.2 29.2-20.2l24.8 9.4c-8.9 22-28.8 35.2-54 35.2-36 0-61.3-26.6-61.3-65.5zm29.1-15.3h57.8c-0.2-14-8.9-26-27.1-26-14.9 0-26.4 8.9-30.7 26z"/>
		<path id="Layer" class="s1" d="m824 240h28.8v-73.9c0-18 13.2-27.6 26.1-27.6 15.9 0 22.1 11.3 22.1 26.9v74.6h28.8v-83c0-27.2-15.8-45.4-42.2-45.4-16.3 0-27.6 7.4-34.8 15.8v-13.4h-28.8z"/>
		<path id="Layer" fill-rule="evenodd" class="s1" d="m1049 67.7l65.3 172.3h-31l-14.9-39.4h-74.4l-14.6 39.4h-30.5l65.3-172.3zm-44.9 106.1h54.2l-27.3-72z"/>
		<path id="Layer" class="s1" d="m1163.7 68.2h-30.7v172.3h30.7z"/>
		<path id="Layer" fill-rule="evenodd" class="s1" d="m297.1 130.9c23.5 26 27.5 64.2 9.9 94.6-11.4 19.9-30.8 34-53.3 38.6-10.8 33.4-41.9 56-76.9 55.9-23 0.1-44.9-9.6-60.2-26.8-34.3 7.4-69.4-8.3-86.8-38.7-11.6-19.8-14.1-43.7-6.9-65.5-23.5-26-27.5-64.2-9.9-94.5 11.4-20 30.8-34.1 53.3-38.7 10.8-33.3 41.9-55.9 76.9-55.8 23-0.1 44.9 9.6 60.2 26.8 34.2-7.3 69.3 8.3 86.8 38.7 11.6 19.8 14.1 43.7 6.9 65.5zm-60.4 108.1v-74.4c-0.1-0.3-0.3-0.6-0.5-0.7l-27-15.5v89.8c0 3.7-2 7.2-5.2 9.1l-63.7 36.8c-0.6 0.3-1.4 0.8-1.9 1 10.7 9 24.3 13.9 38.4 13.9 33.1-0.1 59.8-26.9 59.9-60zm-188.8 5c16.6 28.6 53.3 38.4 82 21.9l64.4-37.2c0.2-0.2 0.4-0.5 0.4-0.8v-31.1l-77.8 44.9c-3.3 1.9-7.3 1.9-10.5 0l-63.7-36.8c-0.6-0.3-1.4-0.8-1.9-1.1-2.4 13.8 0.1 28 7.1 40.2zm-16.8-139.1c-16.5 28.7-6.6 65.3 22 81.9l64.4 37.2c0.3 0.1 0.6 0.1 0.9-0.1l26.9-15.5-77.7-44.9c-3.3-1.9-5.3-5.4-5.3-9.1v-73.6c0-0.7 0.1-1.7 0.1-2.2-13.2 4.8-24.3 14.1-31.3 26.3zm221.3 51.5c3.3 1.8 5.3 5.3 5.2 9v75.8c13.2-4.8 24.2-14.1 31.2-26.2 16.6-28.7 6.8-65.4-21.9-82l-64.4-37.2c-0.3-0.1-0.7-0.1-0.9 0.1l-27 15.5 77.8 45zm26.8-40.4q0 0 0 0 0 0 0 0zm0 0c2.3-13.8-0.2-28-7.2-40.1-16.5-28.7-53.2-38.5-81.9-22l-64.4 37.2c-0.3 0.2-0.4 0.5-0.4 0.8v31.1l77.8-44.9c3.2-1.9 7.2-1.9 10.5 0l63.7 36.8c0.6 0.3 1.4 0.8 1.9 1.1zm-168.5 55.4v-89.8c0-3.7 2-7.2 5.3-9l63.7-36.8c0.5-0.4 1.4-0.8 1.9-1.1-10.8-8.9-24.4-13.9-38.4-13.9-33.1 0-60 26.9-60 60v74.4c0.1 0.3 0.2 0.6 0.5 0.7l27 15.6zm14.6 8.4l34.7 20 34.6-20v-40l-34.6-20-34.7 20z"/>
	</g>
</svg>